<?xml version="1.0" encoding="utf-8"?>
<!-- Generator: Adobe Illustrator 19.0.0, SVG Export Plug-In . SVG Version: 6.00 Build 0)  -->
<svg version="1.1" id="Capa_1" xmlns="http://www.w3.org/2000/svg" xmlns:xlink="http://www.w3.org/1999/xlink" x="0px" y="0px"
	 viewBox="218 -217.5 535.5 535.5" style="enable-background:new 218 -217.5 535.5 535.5;" xml:space="preserve">
<g>
	<g id="notifications-on">
		<path d="M360.8-163.9l-35.7-35.7C263.9-153.8,223.1-82.4,218-0.8h51C274.1-69.6,307.3-128.3,360.8-163.9z M702.5-0.8h51
			c-5.1-81.6-43.3-153-104.5-198.9l-35.7,35.7C664.3-128.3,697.4-69.6,702.5-0.8z M651.5,12c0-79.1-53.5-142.8-127.5-160.6v-17.9
			c0-20.4-17.9-38.3-38.3-38.3s-38.3,17.9-38.3,38.3v17.9C373.5-130.8,320-67.1,320,12v140.3l-51,51v25.5h433.5v-25.5l-51-51V12z
			 M485.8,305.3c2.5,0,7.6,0,10.2,0c17.9-2.5,30.6-15.3,35.7-30.6c2.5-5.1,5.1-12.8,5.1-20.4h-102
			C434.8,282.3,457.7,305.3,485.8,305.3z"/>
	</g>
</g>
</svg>
