<?xml version="1.0" encoding="utf-8"?>
<!-- Generator: Adobe Illustrator 19.0.0, SVG Export Plug-In . SVG Version: 6.00 Build 0)  -->
<svg version="1.1" id="Layer_1" xmlns="http://www.w3.org/2000/svg" xmlns:xlink="http://www.w3.org/1999/xlink" x="0px" y="0px"
	 viewBox="0 0 100 100" style="enable-background:new 0 0 100 100;" xml:space="preserve">
<g id="XMLID_87_">
	<path id="XMLID_88_" d="M26,86c0,2.2-1.8,4-4,4H4c-2.2,0-4-1.8-4-4V46c0-2.2,1.8-4,4-4h18c2.2,0,4,1.8,4,4V86z M96.6,55.3
		c0.7,2,0.9,3.9,0.9,4.7c0.1,3.1-0.8,6.1-2.7,8.6c0.7,2.3,0.7,4.8,0,7.3c-0.6,2.3-1.8,4.4-3.4,5.9c0.4,4.7-0.7,8.5-3.1,11.3
		c-2.7,3.2-6.8,4.8-12.3,4.9c-0.2,0-1.1,0-2.2,0h-4.7H68c-8.9,0-17.4-2.9-24.1-5.3c-3.9-1.4-7.7-2.7-9.9-2.7c-2.1-0.1-4-1.8-4-4
		V45.9c0-2.1,1.8-3.8,3.8-4c2.3-0.2,8.3-7.6,11.1-11.3c2.2-2.9,4.4-5.6,6.3-7.5c2.4-2.4,3.1-6.2,3.9-9.8c0.7-3.7,1.4-7.6,4.1-10.2
		C59.9,2.4,60.9,2,62,2c14,0,14,11.2,14,16c0,5.1-1.8,8.7-3.5,12c-0.7,1.4-1.3,2-1.8,4H88c6.5,0,12,5.5,12,12
		C100,49.3,98.7,52.9,96.6,55.3z"/>
</g>
</svg>
